<svg xmlns="http://www.w3.org/2000/svg" viewBox="0 0 1074.04 333.26"><defs><style>.cls-1{fill:#231f20;}.cls-2{fill:#fff;}.cls-3{fill:#ed1c24;}</style></defs><title>Asset 2</title><g id="Layer_2" data-name="Layer 2"><g id="Layer_1-2" data-name="Layer 1"><path class="cls-1" d="M922.85,198.88,943.12,83.31h51.67L1074,.24h-284L779.89,57.7h-55.1L735.21.24H527.35A162.84,162.84,0,0,0,477.17,7.9a137.27,137.27,0,0,0-38.55,19.31L443.42,0,349.51.93,276.94,81.35,295.57.24H36.12L0,203.32H92l10.43-59.43,70.87-.14-14.56,59.57h156l0,.23,92.89-.29,6.34-35.9a88.46,88.46,0,0,0,10.22,10.46,101.38,101.38,0,0,0,33.34,18.9,125,125,0,0,0,41.28,6.6h167a81.85,81.85,0,0,0-24.11,11.79c-18.17,13.23-27.38,33-27.38,58.66,0,20.18,8.66,36.81,24.39,46.81,13.42,8.53,31.69,12.68,55.86,12.68,24.32,0,43.73-3.73,58.91-11.32l-1.71,9.81h67.34l5.38-30.66,19.38,20.67A34,34,0,0,0,857,331.08a35.3,35.3,0,0,0,12.41,2.18,40.42,40.42,0,0,0,10.86-1.51H999.41l61.53-64.54h-31.58L1061,233.8h-21.67l33.11-34.92Zm-655-78,8.56-37.28h59.33l-6.6,37.53Zm515.58,85.08a37.72,37.72,0,0,0-8.59,10,53.34,53.34,0,0,0-7.78-6c-13.4-8.46-31.66-12.57-55.8-12.57-3.78,0-7.45.09-11,.27l9.91-56.87h55.14L754.2,203.32h32.89A39.35,39.35,0,0,0,783.46,205.91Zm51,3.76-.62-.65a37.49,37.49,0,0,0-6.26-5.7h8Z"/><path class="cls-2" d="M910.68,209.1l23.86-136h55.88l59.75-62.63H798.65L788.46,67.92H712.54L723,10.46H527.35a152.38,152.38,0,0,0-47,7.17A125.29,125.29,0,0,0,441.27,38,103.08,103.08,0,0,0,423.1,56.33l8.11-46-77.11.76L298,73.33h50l-10.2,58L255.06,131,282.73,10.46h-238L12.2,193.09H83.41l10.43-59.41,92.48-.18-14.56,59.59H326.89l0,.2,72.13-.22L408.7,138c.74,2,1.54,4.07,2.46,6a77.38,77.38,0,0,0,19.66,26.09,91.2,91.2,0,0,0,30,17,114.87,114.87,0,0,0,37.91,6h192l10.91-62.54h75.93L766.4,193.09h70.71L858.55,72.56l10.1-.09-26.8,154.11,22,.37-4.28,24.48L826.24,215.9a22.69,22.69,0,0,0-9.63-6.87,26.52,26.52,0,0,0-8.53-1.44,30.65,30.65,0,0,0-9.29,1.45,27.24,27.24,0,0,0-8.9,4.82,27.67,27.67,0,0,0-6.88,8.43,36.56,36.56,0,0,0-3.69,11l-1,5.73a40.31,40.31,0,0,0-16.67-20.38c-11.73-7.4-28.19-11-50.35-11-28.23,0-49,5.16-63.62,15.78-15.38,11.2-23.18,28.16-23.18,50.4,0,16.8,6.8,30,19.66,38.18,11.72,7.46,28.2,11.09,50.37,11.09,28.25,0,49.07-5.19,63.64-15.86A55.35,55.35,0,0,0,768,298l-4.11,23.54h46.59l7.43-42.34,33.4,35.63a24.14,24.14,0,0,0,9.24,6.69A25.25,25.25,0,0,0,869.4,323a30.2,30.2,0,0,0,9.15-1.45,25.93,25.93,0,0,0,9.07-5.08,29.41,29.41,0,0,0,3.94-4.22l-1.64,9.23H995l42-44.09h-31.48l31.65-33.4h-21.68l33.11-34.93Z"/><polygon class="cls-1" points="92.28 83.96 95.92 62.87 203.44 62.87 213.87 20.68 53.25 20.68 24.4 182.87 74.83 182.87 85.25 123.48 181 123.29 190.41 83.78 92.28 83.96"/><polygon class="cls-1" points="269.9 20.68 224.42 20.68 184.78 182.87 328.06 182.87 335.44 141.55 242.23 141.18 269.9 20.68"/><path class="cls-3" d="M487.59,117.66h84.12l-4.12,23.51H506q-18.9,0-30.18-9T464.56,108A37,37,0,0,1,469,90a47.31,47.31,0,0,1,12-14.3,56.6,56.6,0,0,1,17.58-9.46,66,66,0,0,1,21.21-3.39h83.64l40-42.18H527.35a141.78,141.78,0,0,0-43.88,6.66A114.6,114.6,0,0,0,447.59,46a90.74,90.74,0,0,0-24.25,28.73,76.22,76.22,0,0,0-9,36.61,66.39,66.39,0,0,0,23.16,51,80.82,80.82,0,0,0,26.66,15,104.51,104.51,0,0,0,34.55,5.45H610L628,81.54H524.2Z"/><polygon class="cls-3" points="857.4 20.68 842.04 20.68 807.21 20.68 797.03 78.14 700.3 78.14 710.73 20.68 660.54 20.68 631.69 182.87 682.12 182.87 693.03 120.33 789.76 120.33 778.61 182.87 828.55 182.87 849.97 62.42 880.83 62.13 853.97 216.56 898.86 217.3 925.96 62.87 986.04 62.87 1026.29 20.68 857.4 20.68"/><polygon class="cls-1" points="358.68 21.28 320.94 63.11 360.12 63.11 339.04 183.03 390.4 182.87 419.01 20.68 358.68 21.28"/><path class="cls-3" d="M711.29,217.81q30,0,44.89,9.42t14.92,29.49q0,28.32-19,42.21t-57.61,13.88q-30,0-44.89-9.48t-14.91-29.56q0-28.32,19-42.14T711.29,217.81Zm-12.64,71.08a164.9,164.9,0,0,0,22.47-1.23q8.6-1.25,13.34-4.54a16.06,16.06,0,0,0,6.39-9,53.22,53.22,0,0,0,1.65-14.5,18.08,18.08,0,0,0-2-9,13.51,13.51,0,0,0-6.32-5.5,35.62,35.62,0,0,0-11.07-2.68q-6.74-.67-16.09-.68A163.33,163.33,0,0,0,684.62,243q-8.52,1.25-13.26,4.54a16,16,0,0,0-6.4,9A53.4,53.4,0,0,0,663.31,271a17.53,17.53,0,0,0,2.06,9.07,14,14,0,0,0,6.33,5.43,34.3,34.3,0,0,0,10.93,2.69Q689.29,288.89,698.65,288.89Z"/><path class="cls-3" d="M869.4,312.81a12.51,12.51,0,0,1-10.59-4.94l-47.43-50.6-9.48,54H776.05L789.38,235a26,26,0,0,1,2.62-7.84,17.5,17.5,0,0,1,4.33-5.36,16.9,16.9,0,0,1,5.57-3,20.26,20.26,0,0,1,6.18-1,16,16,0,0,1,5.23.9,13.2,13.2,0,0,1,5.36,4l47.43,50.6,7.62-43.59h25.85L888,295.49a24.94,24.94,0,0,1-2.68,7.84,20,20,0,0,1-4.33,5.43,15.65,15.65,0,0,1-5.5,3.09A20,20,0,0,1,869.4,312.81Z"/><path class="cls-3" d="M1013.21,287.66,990.66,311.3H902.12l16.36-92h106.41l-22.68,23.92H942.68l-1.93,11h72.73l-19.8,20.89H937l-2.2,12.52Z"/></g></g></svg>